<svg width="16" height="16" viewBox="0 0 16 16" fill="none" xmlns="http://www.w3.org/2000/svg">
  <defs>
    <linearGradient id="bgGradient" x1="0%" y1="0%" x2="100%" y2="100%">
      <stop offset="0%" style="stop-color:#3B82F6;stop-opacity:1" />
      <stop offset="50%" style="stop-color:#10B981;stop-opacity:1" />
      <stop offset="100%" style="stop-color:#8B5CF6;stop-opacity:1" />
    </linearGradient>
  </defs>
  
  <rect width="16" height="16" rx="3" fill="url(#bgGradient)"/>
  <!-- D -->
  <path d="M2 3 L2 13 L5 13 C6.5 13 7.5 12 7.5 8 C7.5 4 6.5 3 5 3 Z M3 4.5 L4.5 4.5 C5 4.5 5.5 5 5.5 8 C5.5 11 5 11.5 4.5 11.5 L3 11.5 Z" fill="white"/>
  <!-- R -->
  <path d="M8 3 L8 13 M8 3 L10 3 C10.5 3 11 3.2 11 4.5 C11 5.8 10.5 6 10 6 L8 6 M9.5 6 L11 13" fill="none" stroke="white" stroke-width="0.8" stroke-linecap="round"/>
  <!-- S -->
  <path d="M12 5 C12 4.2 12.2 3.5 13 3.5 C13.8 3.5 14 4.2 14 5 M14 5 C14 5.5 13.8 6 13 6.2 L12.5 6.5 C12 6.8 11.5 7.2 11.5 8.5 C11.5 9.8 12 10.5 13 10.5 C14 10.5 14.2 9.8 14.2 8.5" fill="none" stroke="white" stroke-width="0.6" stroke-linecap="round"/>
</svg>
