<svg width="32" height="32" viewBox="0 0 32 32" fill="none" xmlns="http://www.w3.org/2000/svg">
  <!-- Background circle with gradient -->
  <defs>
    <linearGradient id="bgGradient" x1="0%" y1="0%" x2="100%" y2="100%">
      <stop offset="0%" style="stop-color:#3B82F6;stop-opacity:1" />
      <stop offset="50%" style="stop-color:#10B981;stop-opacity:1" />
      <stop offset="100%" style="stop-color:#8B5CF6;stop-opacity:1" />
    </linearGradient>
    <linearGradient id="textGradient" x1="0%" y1="0%" x2="100%" y2="100%">
      <stop offset="0%" style="stop-color:#FFFFFF;stop-opacity:1" />
      <stop offset="100%" style="stop-color:#F3F4F6;stop-opacity:1" />
    </linearGradient>
  </defs>
  
  <!-- Background -->
  <circle cx="16" cy="16" r="16" fill="url(#bgGradient)"/>
  
  <!-- Subtle inner shadow -->
  <circle cx="16" cy="16" r="15" fill="none" stroke="rgba(255,255,255,0.1)" stroke-width="1"/>
  
  <!-- Letter D -->
  <path d="M4 9 L4 23 L8 23 C10.5 23 12 21.5 12 16 C12 10.5 10.5 9 8 9 Z M6 11 L7.5 11 C8.5 11 9 11.5 9 16 C9 20.5 8.5 21 7.5 21 L6 21 Z" fill="url(#textGradient)" stroke="rgba(255,255,255,0.2)" stroke-width="0.3"/>
  
  <!-- Letter R -->
  <path d="M13 9 L13 23 M13 9 L16 9 C17 9 17.5 9.5 17.5 11.5 C17.5 13.5 17 14 16 14 L13 14 M15.5 14 L18 23" fill="none" stroke="url(#textGradient)" stroke-width="1.5" stroke-linecap="round" stroke-linejoin="round"/>
  
  <!-- Letter S -->
  <path d="M20 12 C20 10.5 20.5 9.5 22 9.5 C23.5 9.5 24 10.5 24 12 M24 12 C24 13 23.5 13.5 22 14 L21 14.5 C20 15 19.5 15.5 19.5 17 C19.5 18.5 20 19.5 21.5 19.5 C23 19.5 23.5 18.5 23.5 17" fill="none" stroke="url(#textGradient)" stroke-width="1.2" stroke-linecap="round"/>
  
  <!-- Decorative dots -->
  <circle cx="3" cy="3" r="0.8" fill="rgba(255,255,255,0.6)"/>
  <circle cx="29" cy="29" r="0.8" fill="rgba(255,255,255,0.6)"/>
</svg>
